<svg xmlns="http://www.w3.org/2000/svg" viewBox="0 0 800 400" width="800" height="400">
  <defs>
    <linearGradient id="panel" x1="0" y1="0" x2="0" y2="1">
      <stop offset="0%" stop-color="#3b3b44"/>
      <stop offset="100%" stop-color="#1e1e24"/>
    </linearGradient>
  </defs>
  <rect width="800" height="400" rx="14" fill="url(#panel)" stroke="#111" stroke-width="4"/>
  <text x="400" y="52" text-anchor="middle" fill="#dcdce8" font-family="ui-monospace, monospace" font-size="24" letter-spacing="2">808-style drum machine</text>
  <text x="400" y="82" text-anchor="middle" fill="#8a8a9a" font-family="ui-monospace, monospace" font-size="13">Drop public/tr808-pixel.png to replace this graphic</text>
  <!-- Row 1 pads -->
  <rect x="32" y="120" width="104" height="96" rx="8" fill="#2d2d36" stroke="#0d0d12" stroke-width="3"/>
  <text x="84" y="172" text-anchor="middle" fill="#a4a4b8" font-family="ui-monospace, monospace" font-size="18">BD</text>
  <rect x="152" y="120" width="104" height="96" rx="8" fill="#2d2d36" stroke="#0d0d12" stroke-width="3"/>
  <text x="204" y="172" text-anchor="middle" fill="#a4a4b8" font-family="ui-monospace, monospace" font-size="18">SD</text>
  <rect x="272" y="120" width="104" height="96" rx="8" fill="#2d2d36" stroke="#0d0d12" stroke-width="3"/>
  <text x="324" y="172" text-anchor="middle" fill="#a4a4b8" font-family="ui-monospace, monospace" font-size="18">LT</text>
  <rect x="392" y="120" width="104" height="96" rx="8" fill="#2d2d36" stroke="#0d0d12" stroke-width="3"/>
  <text x="444" y="172" text-anchor="middle" fill="#a4a4b8" font-family="ui-monospace, monospace" font-size="18">MT</text>
  <rect x="512" y="120" width="104" height="96" rx="8" fill="#2d2d36" stroke="#0d0d12" stroke-width="3"/>
  <text x="564" y="172" text-anchor="middle" fill="#a4a4b8" font-family="ui-monospace, monospace" font-size="18">HT</text>
  <rect x="632" y="120" width="104" height="96" rx="8" fill="#2d2d36" stroke="#0d0d12" stroke-width="3"/>
  <text x="684" y="172" text-anchor="middle" fill="#a4a4b8" font-family="ui-monospace, monospace" font-size="18">RS</text>
  <!-- Row 2 pads -->
  <rect x="32" y="232" width="104" height="96" rx="8" fill="#2d2d36" stroke="#0d0d12" stroke-width="3"/>
  <text x="84" y="284" text-anchor="middle" fill="#a4a4b8" font-family="ui-monospace, monospace" font-size="18">CP</text>
  <rect x="152" y="232" width="104" height="96" rx="8" fill="#2d2d36" stroke="#0d0d12" stroke-width="3"/>
  <text x="204" y="284" text-anchor="middle" fill="#a4a4b8" font-family="ui-monospace, monospace" font-size="18">MA</text>
  <rect x="272" y="232" width="104" height="96" rx="8" fill="#2d2d36" stroke="#0d0d12" stroke-width="3"/>
  <text x="324" y="284" text-anchor="middle" fill="#a4a4b8" font-family="ui-monospace, monospace" font-size="18">CH</text>
  <rect x="392" y="232" width="104" height="96" rx="8" fill="#2d2d36" stroke="#0d0d12" stroke-width="3"/>
  <text x="444" y="284" text-anchor="middle" fill="#a4a4b8" font-family="ui-monospace, monospace" font-size="18">OH</text>
  <rect x="512" y="232" width="104" height="96" rx="8" fill="#2d2d36" stroke="#0d0d12" stroke-width="3"/>
  <text x="564" y="284" text-anchor="middle" fill="#a4a4b8" font-family="ui-monospace, monospace" font-size="18">CY</text>
  <rect x="632" y="232" width="104" height="96" rx="8" fill="#2d2d36" stroke="#0d0d12" stroke-width="3"/>
  <text x="684" y="284" text-anchor="middle" fill="#a4a4b8" font-family="ui-monospace, monospace" font-size="18">CB</text>
</svg>
